<svg xmlns="http://www.w3.org/2000/svg" xmlns:xlink="http://www.w3.org/1999/xlink" width="24" height="24" viewBox="0 0 24 24">
    <defs>
        <path id="a" d="M11.872 17a4.375 4.375 0 0 0 4.375-4.375v-6.25a4.375 4.375 0 1 0-8.75 0v6.25A4.375 4.375 0 0 0 11.872 17zM8.684 6.375a3.19 3.19 0 0 1 3.188-3.188 3.19 3.19 0 0 1 3.187 3.188v6.25a3.19 3.19 0 0 1-3.187 3.188 3.191 3.191 0 0 1-3.188-3.188v-6.25zm10.061 7.5h.001a7.015 7.015 0 0 1-6.263 5.582c.005.014.013.027.017.043v1.25h.625c.375 0 .625.25.625.625s-.25.625-.625.625h-2.5c-.375 0-.625-.25-.625-.625s.25-.625.625-.625h.625V19.5c.004-.016.01-.027.016-.043A7.018 7.018 0 0 1 5 13.875h1.224c.631 2.535 2.92 4.422 5.649 4.422 2.728 0 5.017-1.887 5.648-4.422h1.224z"/>
    </defs>
    <g fill="none" fill-rule="evenodd">
        <use fill="#000" fill-rule="nonzero" xlink:href="#a"/>
        <path fill="#0079C8" d="M0 0h24v24H0z"/>
    </g>
</svg>
